<svg xmlns="http://www.w3.org/2000/svg" width="512" height="512" viewBox="0 0 512 512"><path fill="#E79E2D" d="M504.1,256c0,137-111.1,248.1-248.1,248.1C119,504.1,7.9,393,7.9,256C7.9,119,119,7.9,256,7.9C393,7.9,504.1,119,504.1,256"/><path fill="#282821" d="M211.6,238.6c34.6-6.3,57.7-39.5,51.5-74.2c-5-27.9-31.8-46.4-59.6-41.4c-2.1,0.4-4.3,0.9-6.3,1.6l0.9,2.5c1.9-0.7,3.9-1.2,5.9-1.6c26.4-4.8,51.8,12.9,56.6,39.3c6,33.2-16.1,65.1-49.4,71.1L211.6,238.6z"/><path fill="#282821" d="M191.4 127.2c0 3.6 2.9 6.6 6.6 6.6 3.6 0 6.6-2.9 6.6-6.6 0-3.6-2.9-6.6-6.6-6.6C194.3 120.6 191.4 123.5 191.4 127.2M309 238.6c-34.6-6.3-57.7-39.5-51.5-74.2 5-27.9 31.8-46.4 59.6-41.4 2.1.4 4.3.9 6.3 1.6l-.8 2.5c-1.9-.7-3.9-1.2-5.9-1.6-26.4-4.8-51.8 12.9-56.6 39.3-6 33.2 16.2 65.1 49.4 71.1L309 238.6z"/><path fill="#FCFDFF" d="M223.2,290.2c-39.3,46.4-90.1,68.1-113.3,48.4S99.7,265.2,139,218.8c39.4-46.4,90.1-68.1,113.3-48.4C275.6,190.2,262.6,243.8,223.2,290.2"/><path fill="#FCFDFF" d="M288.8,290.2c39.3,46.4,90.1,68.1,113.3,48.4c23.2-19.7,10.2-73.3-29.2-119.7c-39.3-46.4-90.1-68.1-113.3-48.4C236.4,190.2,249.4,243.8,288.8,290.2"/><path fill="#FCED20" d="M350.1,272.7c0,65.6-41.9,118.7-93.7,118.7c-51.7,0-93.7-53.1-93.7-118.7S204.8,154,256.5,154C308.2,154,350.1,207.2,350.1,272.7"/><path fill="#282821" d="M164.4 250.9h184.2c-1.7-11.3-4.6-22-8.6-31.9H173C169 228.9 166.1 239.6 164.4 250.9M168.9 314.7h175.3c3-10.1 5-20.8 5.7-31.9H163.2C163.9 293.9 165.8 304.7 168.9 314.7M183.2 346.7c8.3 13.2 18.8 24.2 30.9 31.9h84.9c12-7.8 22.5-18.7 30.9-31.9H183.2zM256.5 198.3L256.5 198.3c-11.5 0-22.1-3.6-28.4-9.5-.8-.7-.8-2-.1-2.8.7-.8 2-.8 2.8-.1 5.5 5.3 15.1 8.4 25.7 8.4 10.5 0 20.1-3.1 25.6-8.4.8-.7 2-.7 2.8.1.7.8.7 2-.1 2.8C278.6 194.7 268 198.3 256.5 198.3M329.2 127.2c0 3.6-3 6.6-6.6 6.6s-6.6-2.9-6.6-6.6c0-3.6 3-6.6 6.6-6.6S329.2 123.5 329.2 127.2"/></svg>